<svg xmlns="http://www.w3.org/2000/svg" xmlns:xlink="http://www.w3.org/1999/xlink" width="500" zoomAndPan="magnify" viewBox="0 0 375 374.999991" height="500" preserveAspectRatio="xMidYMid meet" version="1.0"><defs><g/><clipPath id="06df39c3db"><path d="M 94.710938 91.542969 L 277 91.542969 L 277 205 L 94.710938 205 Z M 94.710938 91.542969 " clip-rule="nonzero"/></clipPath><clipPath id="d3e50e5316"><path d="M 96 142 L 279.960938 142 L 279.960938 210.042969 L 96 210.042969 Z M 96 142 " clip-rule="nonzero"/></clipPath></defs><g clip-path="url(#06df39c3db)"><path fill="#ff914d" d="M 171.464844 141.238281 C 165.027344 143.226562 158.46875 145.871094 151.910156 149.363281 L 148 140.757812 L 141.019531 155.921875 C 125.375 166.449219 109.730469 182.09375 94.929688 204.414062 L 147.578125 91.542969 L 148.238281 91.542969 Z M 249.800781 137.992188 C 237.40625 132.15625 229.222656 129.929688 229.222656 123.492188 C 229.222656 117.894531 235.242188 113.261719 243.363281 113.261719 C 249.378906 113.261719 255.636719 115.851562 258.824219 122.289062 L 274.832031 111.097656 C 270.015625 98.039062 257.804688 91.964844 243.0625 91.964844 C 223.207031 91.964844 207.382812 104.296875 207.382812 123.007812 C 207.382812 128.664062 208.828125 133.179688 211.171875 136.90625 C 240.355469 139.015625 264.421875 151.769531 276.09375 159.167969 C 271.703125 150.203125 262.375 143.949219 249.800781 137.992188 Z M 249.800781 137.992188 " fill-opacity="1" fill-rule="nonzero"/></g><g clip-path="url(#d3e50e5316)"><path fill="#545454" d="M 280.066406 178.0625 C 280.066406 181.613281 279.523438 184.921875 278.5625 187.929688 L 278.5625 188.050781 C 274.046875 201.886719 259.789062 210.25 240.894531 210.25 C 223.207031 210.25 210.089844 202.851562 202.871094 189.492188 L 220.257812 177.28125 C 225.011719 184.921875 231.929688 188.410156 241.257812 188.410156 C 251.425781 188.410156 258.285156 184.257812 258.285156 178.484375 C 258.285156 177.339844 257.984375 176.257812 257.503906 175.175781 C 226.996094 159.351562 201.246094 158.507812 180.609375 164.222656 L 202.089844 210.3125 L 178.082031 210.3125 L 171.101562 194.910156 L 162.5 176.015625 L 160.753906 172.226562 C 134.28125 186.605469 120.261719 209.710938 119.960938 210.25 L 96.074219 210.25 C 110.9375 187.871094 126.519531 172.285156 142.164062 161.757812 C 145.773438 159.289062 149.382812 157.125 152.992188 155.199219 C 159.550781 151.710938 166.109375 149 172.546875 147.078125 C 186.386719 142.863281 199.800781 141.78125 212.257812 142.683594 C 241.4375 144.789062 265.503906 157.546875 277.175781 164.945312 C 279.101562 168.855469 280.066406 173.128906 280.066406 178.0625 Z M 280.066406 178.0625 " fill-opacity="1" fill-rule="nonzero"/></g><g fill="#ffffff" fill-opacity="1"><g transform="translate(39.386721, 251.557719)"><g><path d="M 1.855469 0.105469 C 2.238281 0.246094 2.589844 0.316406 2.972656 0.316406 C 4.164062 0.316406 5.25 -0.351562 5.703125 -1.503906 L 7.105469 -5.460938 L 15.921875 -5.460938 L 17.324219 -1.503906 C 17.777344 -0.351562 18.863281 0.316406 20.050781 0.316406 C 20.4375 0.316406 20.785156 0.246094 21.171875 0.105469 C 22.292969 -0.386719 22.957031 -1.46875 22.957031 -2.625 C 22.957031 -3.007812 22.886719 -3.359375 22.746094 -3.746094 L 16.0625 -21.941406 C 15.363281 -23.726562 14.066406 -24.847656 11.546875 -24.847656 C 9.0625 -24.847656 7.699219 -23.796875 7 -21.941406 L 0.246094 -3.746094 C 0.105469 -3.394531 0.0351562 -3.007812 0.0351562 -2.625 C 0.0351562 -1.46875 0.699219 -0.386719 1.855469 0.105469 Z M 8.820312 -10.183594 L 11.511719 -17.777344 L 14.207031 -10.183594 Z M 8.820312 -10.183594 "/></g></g></g><g fill="#ffffff" fill-opacity="1"><g transform="translate(62.411523, 251.557719)"><g><path d="M 5.039062 0.351562 C 7.035156 0.351562 8.015625 -0.628906 8.015625 -2.449219 L 8.015625 -15.082031 L 15.503906 -1.890625 C 16.34375 -0.351562 17.460938 0.386719 19.703125 0.351562 C 22.082031 0.351562 23.339844 -1.15625 23.339844 -3.078125 L 23.339844 -22.117188 C 23.339844 -23.972656 22.363281 -24.847656 20.367188 -24.847656 C 18.371094 -24.847656 17.390625 -23.902344 17.390625 -22.117188 L 17.390625 -9.414062 L 9.902344 -22.640625 C 9.0625 -24.148438 7.910156 -24.882812 5.703125 -24.847656 C 3.324219 -24.847656 2.066406 -23.339844 2.066406 -21.417969 L 2.066406 -2.449219 C 2.066406 -0.558594 3.042969 0.351562 5.039062 0.351562 Z M 5.039062 0.351562 "/></g></g></g><g fill="#ffffff" fill-opacity="1"><g transform="translate(87.780795, 251.557719)"><g><path d="M 12.003906 0.351562 C 14.59375 0.351562 16.65625 -0.421875 18.265625 -1.503906 C 18.476562 -0.28125 19.351562 0.351562 20.960938 0.351562 C 22.78125 0.351562 23.691406 -0.558594 23.691406 -2.203125 L 23.691406 -11.476562 C 23.691406 -12.984375 22.746094 -13.929688 21.242188 -13.929688 L 14.171875 -13.929688 C 12.773438 -13.929688 12.003906 -13.191406 12.003906 -11.792969 C 12.003906 -10.359375 12.703125 -9.625 14.171875 -9.625 L 17.742188 -9.625 L 17.742188 -5.914062 C 16.726562 -4.933594 15.328125 -4.304688 13.472656 -4.304688 C 9.589844 -4.304688 7.382812 -7.140625 7.382812 -12.285156 C 7.382812 -17.253906 9.449219 -20.226562 13.296875 -20.226562 C 15.539062 -20.226562 16.972656 -19.28125 18.617188 -16.902344 C 19.074219 -16.308594 19.808594 -15.957031 20.578125 -15.957031 C 21.101562 -15.957031 21.660156 -16.132812 22.1875 -16.484375 C 22.851562 -16.9375 23.203125 -17.742188 23.203125 -18.546875 C 23.203125 -19.003906 23.097656 -19.492188 22.816406 -19.914062 C 20.925781 -23.027344 17.988281 -24.847656 12.914062 -24.847656 C 4.792969 -24.847656 1.433594 -20.050781 1.433594 -12.285156 C 1.433594 -4.445312 4.828125 0.351562 12.003906 0.351562 Z M 12.003906 0.351562 "/></g></g></g><g fill="#ffffff" fill-opacity="1"><g transform="translate(113.499983, 251.557719)"><g><path d="M 4.515625 0 L 19.667969 0 C 21.171875 0 21.90625 -0.769531 21.90625 -2.273438 C 21.90625 -3.78125 21.136719 -4.515625 19.667969 -4.515625 L 8.015625 -4.515625 L 8.015625 -10.007812 L 16.621094 -10.007812 C 18.128906 -10.007812 18.863281 -10.742188 18.863281 -12.25 C 18.863281 -13.753906 18.058594 -14.523438 16.621094 -14.523438 L 8.015625 -14.523438 L 8.015625 -19.980469 L 19.667969 -19.980469 C 21.171875 -19.980469 21.90625 -20.753906 21.90625 -22.257812 C 21.90625 -23.761719 21.136719 -24.496094 19.667969 -24.496094 L 4.515625 -24.496094 C 2.972656 -24.496094 2.066406 -23.585938 2.066406 -22.046875 L 2.066406 -2.449219 C 2.066406 -0.945312 2.972656 0 4.515625 0 Z M 4.515625 0 "/></g></g></g><g fill="#ffffff" fill-opacity="1"><g transform="translate(136.209854, 251.557719)"><g><path d="M 4.515625 0 L 19.5625 0 C 21.101562 0 21.90625 -0.804688 21.90625 -2.378906 C 21.90625 -3.953125 21.136719 -4.722656 19.5625 -4.722656 L 8.015625 -4.722656 L 8.015625 -22.082031 C 8.015625 -23.972656 7.035156 -24.847656 5.039062 -24.847656 C 3.042969 -24.847656 2.066406 -23.902344 2.066406 -22.082031 L 2.066406 -2.449219 C 2.066406 -0.945312 2.972656 0 4.515625 0 Z M 4.515625 0 "/></g></g></g><g fill="#ffffff" fill-opacity="1"><g transform="translate(158.639792, 251.557719)"><g/></g></g><g fill="#ffffff" fill-opacity="1"><g transform="translate(169.137423, 251.557719)"><g><path d="M 11.792969 0.351562 C 18.933594 0.351562 22.011719 -2.800781 22.011719 -7.3125 C 22.011719 -11.09375 19.84375 -13.125 15.292969 -14.136719 L 10.535156 -15.257812 C 8.609375 -15.710938 7.664062 -16.519531 7.664062 -17.917969 C 7.664062 -19.457031 8.75 -20.367188 11.09375 -20.367188 C 13.402344 -20.367188 15.1875 -19.457031 16.691406 -17.496094 C 17.183594 -16.902344 17.882812 -16.585938 18.617188 -16.585938 C 19.175781 -16.585938 19.738281 -16.761719 20.191406 -17.148438 C 20.820312 -17.671875 21.136719 -18.371094 21.136719 -19.105469 C 21.136719 -19.527344 21.03125 -19.945312 20.820312 -20.332031 C 19.28125 -23.132812 16.308594 -24.847656 11.234375 -24.847656 C 4.722656 -24.847656 1.714844 -22.433594 1.714844 -17.636719 C 1.714844 -13.753906 4.058594 -11.722656 8.292969 -10.742188 L 13.332031 -9.554688 C 15.1875 -9.097656 16.0625 -8.328125 16.0625 -6.859375 C 16.0625 -5.179688 14.558594 -4.164062 11.863281 -4.164062 C 9.027344 -4.164062 7.070312 -5.074219 5.285156 -7.207031 C 4.792969 -7.769531 4.09375 -8.050781 3.429688 -8.050781 C 2.871094 -8.050781 2.308594 -7.875 1.855469 -7.523438 C 1.191406 -7.035156 0.875 -6.265625 0.875 -5.527344 C 0.875 -5.109375 1.015625 -4.65625 1.226562 -4.269531 C 2.800781 -1.46875 6.300781 0.351562 11.792969 0.351562 Z M 11.792969 0.351562 "/></g></g></g><g fill="#ffffff" fill-opacity="1"><g transform="translate(192.337182, 251.557719)"><g><path d="M 4.515625 0 L 19.667969 0 C 21.171875 0 21.90625 -0.769531 21.90625 -2.273438 C 21.90625 -3.78125 21.136719 -4.515625 19.667969 -4.515625 L 8.015625 -4.515625 L 8.015625 -10.007812 L 16.621094 -10.007812 C 18.128906 -10.007812 18.863281 -10.742188 18.863281 -12.25 C 18.863281 -13.753906 18.058594 -14.523438 16.621094 -14.523438 L 8.015625 -14.523438 L 8.015625 -19.980469 L 19.667969 -19.980469 C 21.171875 -19.980469 21.90625 -20.753906 21.90625 -22.257812 C 21.90625 -23.761719 21.136719 -24.496094 19.667969 -24.496094 L 4.515625 -24.496094 C 2.972656 -24.496094 2.066406 -23.585938 2.066406 -22.046875 L 2.066406 -2.449219 C 2.066406 -0.945312 2.972656 0 4.515625 0 Z M 4.515625 0 "/></g></g></g><g fill="#ffffff" fill-opacity="1"><g transform="translate(215.047053, 251.557719)"><g><path d="M 5.039062 0.351562 C 7.035156 0.351562 8.015625 -0.558594 8.015625 -2.414062 L 8.015625 -7.945312 L 10.636719 -7.945312 C 12.703125 -7.945312 13.507812 -7.453125 14.277344 -6.125 L 17.636719 -0.980469 C 18.199219 -0.175781 19.105469 0.246094 20.015625 0.246094 C 20.578125 0.246094 21.171875 0.105469 21.660156 -0.246094 C 22.464844 -0.804688 22.886719 -1.714844 22.886719 -2.625 C 22.886719 -3.183594 22.746094 -3.78125 22.398438 -4.269531 L 20.015625 -8.222656 C 19.632812 -8.992188 19.175781 -9.589844 18.617188 -10.078125 C 20.925781 -11.234375 22.011719 -13.4375 22.011719 -16.796875 C 22.011719 -21.976562 19.421875 -24.496094 13.648438 -24.496094 L 4.515625 -24.496094 C 2.972656 -24.496094 2.066406 -23.585938 2.066406 -22.046875 L 2.066406 -2.414062 C 2.066406 -0.59375 3.042969 0.351562 5.039062 0.351562 Z M 8.015625 -12.632812 L 8.015625 -19.773438 L 12.667969 -19.773438 C 14.941406 -19.773438 16.0625 -18.6875 16.0625 -16.238281 C 16.0625 -13.753906 14.941406 -12.632812 12.667969 -12.632812 Z M 8.015625 -12.632812 "/></g></g></g><g fill="#ffffff" fill-opacity="1"><g transform="translate(238.806692, 251.557719)"><g><path d="M 11.476562 0.351562 C 13.929688 0.351562 15.292969 -0.699219 16.027344 -2.589844 L 22.746094 -20.753906 C 22.886719 -21.101562 22.957031 -21.488281 22.957031 -21.871094 C 22.957031 -23.027344 22.292969 -24.113281 21.136719 -24.601562 C 20.785156 -24.742188 20.402344 -24.8125 20.015625 -24.8125 C 18.863281 -24.8125 17.777344 -24.148438 17.324219 -22.992188 L 11.511719 -6.71875 L 5.703125 -22.992188 C 5.214844 -24.148438 4.128906 -24.8125 2.972656 -24.8125 C 2.589844 -24.8125 2.203125 -24.742188 1.855469 -24.601562 C 0.699219 -24.113281 0.0351562 -23.027344 0.0351562 -21.871094 C 0.0351562 -21.488281 0.105469 -21.101562 0.246094 -20.753906 L 6.964844 -2.589844 C 7.664062 -0.769531 8.957031 0.351562 11.476562 0.351562 Z M 11.476562 0.351562 "/></g></g></g><g fill="#ffffff" fill-opacity="1"><g transform="translate(261.796497, 251.557719)"><g><path d="M 5.039062 0.351562 C 7.035156 0.351562 8.015625 -0.523438 8.015625 -2.414062 L 8.015625 -22.082031 C 8.015625 -23.972656 7.035156 -24.847656 5.039062 -24.847656 C 3.042969 -24.847656 2.066406 -23.902344 2.066406 -22.082031 L 2.066406 -2.414062 C 2.066406 -0.628906 3.042969 0.351562 5.039062 0.351562 Z M 5.039062 0.351562 "/></g></g></g><g fill="#ffffff" fill-opacity="1"><g transform="translate(271.87421, 251.557719)"><g><path d="M 12.84375 0.351562 C 17.671875 0.351562 20.71875 -1.574219 22.535156 -4.6875 C 22.886719 -5.285156 23.0625 -5.914062 23.0625 -6.507812 C 23.0625 -7.347656 22.710938 -8.152344 21.976562 -8.679688 C 21.453125 -9.0625 20.855469 -9.238281 20.261719 -9.238281 C 19.351562 -9.238281 18.441406 -8.785156 17.953125 -7.875 C 16.867188 -5.84375 15.398438 -4.445312 12.84375 -4.445312 C 9.378906 -4.445312 7.382812 -7.175781 7.382812 -12.25 C 7.382812 -17.324219 9.34375 -20.085938 12.84375 -20.085938 C 15.398438 -20.085938 16.832031 -18.652344 17.953125 -16.65625 C 18.441406 -15.746094 19.351562 -15.292969 20.261719 -15.292969 C 20.855469 -15.292969 21.453125 -15.46875 21.976562 -15.851562 C 22.710938 -16.378906 23.0625 -17.148438 23.0625 -17.988281 C 23.0625 -18.582031 22.886719 -19.210938 22.535156 -19.808594 C 20.683594 -22.921875 17.636719 -24.847656 12.84375 -24.847656 C 4.757812 -24.847656 1.433594 -20.015625 1.433594 -12.25 C 1.433594 -4.480469 4.792969 0.351562 12.84375 0.351562 Z M 12.84375 0.351562 "/></g></g></g><g fill="#ffffff" fill-opacity="1"><g transform="translate(296.368685, 251.557719)"><g><path d="M 4.515625 0 L 19.667969 0 C 21.171875 0 21.90625 -0.769531 21.90625 -2.273438 C 21.90625 -3.78125 21.136719 -4.515625 19.667969 -4.515625 L 8.015625 -4.515625 L 8.015625 -10.007812 L 16.621094 -10.007812 C 18.128906 -10.007812 18.863281 -10.742188 18.863281 -12.25 C 18.863281 -13.753906 18.058594 -14.523438 16.621094 -14.523438 L 8.015625 -14.523438 L 8.015625 -19.980469 L 19.667969 -19.980469 C 21.171875 -19.980469 21.90625 -20.753906 21.90625 -22.257812 C 21.90625 -23.761719 21.136719 -24.496094 19.667969 -24.496094 L 4.515625 -24.496094 C 2.972656 -24.496094 2.066406 -23.585938 2.066406 -22.046875 L 2.066406 -2.449219 C 2.066406 -0.945312 2.972656 0 4.515625 0 Z M 4.515625 0 "/></g></g></g><g fill="#ffffff" fill-opacity="1"><g transform="translate(319.078568, 251.557719)"><g><path d="M 11.792969 0.351562 C 18.933594 0.351562 22.011719 -2.800781 22.011719 -7.3125 C 22.011719 -11.09375 19.84375 -13.125 15.292969 -14.136719 L 10.535156 -15.257812 C 8.609375 -15.710938 7.664062 -16.519531 7.664062 -17.917969 C 7.664062 -19.457031 8.75 -20.367188 11.09375 -20.367188 C 13.402344 -20.367188 15.1875 -19.457031 16.691406 -17.496094 C 17.183594 -16.902344 17.882812 -16.585938 18.617188 -16.585938 C 19.175781 -16.585938 19.738281 -16.761719 20.191406 -17.148438 C 20.820312 -17.671875 21.136719 -18.371094 21.136719 -19.105469 C 21.136719 -19.527344 21.03125 -19.945312 20.820312 -20.332031 C 19.28125 -23.132812 16.308594 -24.847656 11.234375 -24.847656 C 4.722656 -24.847656 1.714844 -22.433594 1.714844 -17.636719 C 1.714844 -13.753906 4.058594 -11.722656 8.292969 -10.742188 L 13.332031 -9.554688 C 15.1875 -9.097656 16.0625 -8.328125 16.0625 -6.859375 C 16.0625 -5.179688 14.558594 -4.164062 11.863281 -4.164062 C 9.027344 -4.164062 7.070312 -5.074219 5.285156 -7.207031 C 4.792969 -7.769531 4.09375 -8.050781 3.429688 -8.050781 C 2.871094 -8.050781 2.308594 -7.875 1.855469 -7.523438 C 1.191406 -7.035156 0.875 -6.265625 0.875 -5.527344 C 0.875 -5.109375 1.015625 -4.65625 1.226562 -4.269531 C 2.800781 -1.46875 6.300781 0.351562 11.792969 0.351562 Z M 11.792969 0.351562 "/></g></g></g></svg>